PathFileType	4	(X/Y/Z)	./resultDataOpenSim/trcMotMarkerGrf/sub06/qtm-13-05.trc
DataRate	CameraRate	NumFrames	NumMarkers	Units	OrigDataRate	OrigDataStartFrame	OrigNumFrames
250.000000	250.000000	5	24	m	250.000000	185	493
Frame#	Time	L.Toe.Tip			R.Toe.Tip			L.Ankle.Lat			R.Ankle.Lat			L.Ankle.Med			R.Ankle.Med			L.Heel			R.Heel			L.Knee.Lat			R.Knee.Lat			L.Knee.Med			R.Knee.Med			L.Thigh.Upper			R.Thigh.Upper			L.ASIS			R.ASIS			V.Sacral			L.Acromium			R.Acromium			C7			L.Elbow			R.Elbow			L.Wrist.Lat			R.Wrist.Lat
		X1	Y1	Z1	X2	Y2	Z2	X3	Y3	Z3	X4	Y4	Z4	X5	Y5	Z5	X6	Y6	Z6	X7	Y7	Z7	X8	Y8	Z8	X9	Y9	Z9	X10	Y10	Z10	X11	Y11	Z11	X12	Y12	Z12	X13	Y13	Z13	X14	Y14	Z14	X15	Y15	Z15	X16	Y16	Z16	X17	Y17	Z17	X18	Y18	Z18	X19	Y19	Z19	X20	Y20	Z20	X21	Y21	Z21	X22	Y22	Z22	X23	Y23	Z23	X24	Y24	Z24

185	0.736	0.11830778	-0.01560657	-0.033910005	-0.3961232	0.1174436	0.13441566	-0.0026205769	0.016268085	-0.061900627	-0.40164699	0.25814689	0.14755904	-0.007123181	0.030445512	0.025649713	-0.35988493	0.23728251	0.070404496	-0.081416397	-0.0091798241	-0.020732861	-0.42366148	0.29744903	0.079009984	0.095857338	0.37687935	-0.080920761	-0.050317905	0.35608845	0.21714455	0.062709633	0.37998613	0.037781015	-0.050179664	0.33771398	0.082190624	-0.039260547	0.74967206	-0.14975964	-0.12947354	0.71102092	0.19340219	0.030055803	0.78565557	-0.082899187	-0.026261142	0.77325076	0.15413072	-0.19078359	0.85803225	0.011610293	-0.037327681	1.2487814	-0.17152458	-0.05695848	1.2561519	0.19208085	-0.12469825	1.2971216	0.0031697136	-0.14911108	0.95695451	-0.20543233	-0.12084459	0.93945029	0.267945	-0.092494555	0.72715298	-0.26541607	0.075524925	0.78822523	0.26256366
186	0.74	0.11826859	-0.015597747	-0.033892391	-0.37724512	0.1191052	0.13484457	-0.0026541255	0.016366467	-0.061843898	-0.38498186	0.2595592	0.14787842	-0.007227717	0.030484508	0.025727757	-0.34317768	0.23918043	0.070417272	-0.081473967	-0.0090959816	-0.020719106	-0.40831701	0.29840393	0.079416975	0.097735421	0.37657861	-0.080291377	-0.034976756	0.35947712	0.21708908	0.062696655	0.38056498	0.03791191	-0.03467667	0.34046498	0.081482127	-0.033257889	0.75089158	-0.1499842	-0.12301729	0.71355721	0.1932283	0.03665632	0.7869076	-0.083242649	-0.02021281	0.77582052	0.15423242	-0.1843434	0.86006613	0.011393371	-0.029467707	1.251231	-0.17105859	-0.050523158	1.2580264	0.1924596	-0.11739242	1.2991698	0.0033579532	-0.13935726	0.95832511	-0.20613637	-0.11583832	0.9416524	0.26675336	-0.079393369	0.72924344	-0.26528939	0.077463176	0.78681525	0.26337848
187	0.744	0.11821419	-0.015600972	-0.033848839	-0.35814918	0.12060839	0.13531613	-0.0026401606	0.016471095	-0.061729272	-0.36809904	0.26083445	0.14835293	-0.0073469409	0.03051607	0.025820669	-0.32651319	0.24089162	0.070459846	-0.081548108	-0.0090225734	-0.020701105	-0.39314421	0.29899792	0.079843548	0.099363421	0.37636766	-0.079623192	-0.019735246	0.36315391	0.21695069	0.062580853	0.3810022	0.038060559	-0.019379648	0.34357603	0.080953116	-0.027373413	0.75213061	-0.15021618	-0.11651197	0.71619528	0.19305273	0.043150162	0.78819285	-0.083591598	-0.014146123	0.77843151	0.15433882	-0.17751913	0.86210217	0.010954321	-0.021744756	1.2537557	-0.17054709	-0.044114593	1.2599474	0.19285765	-0.11011775	1.301259	0.0035717943	-0.1296727	0.95978097	-0.20684012	-0.11085364	0.94392502	0.26558219	-0.066160606	0.73148983	-0.26515039	0.079282632	0.78553648	0.26421777
188	0.748	0.11814219	-0.015619073	-0.033785277	-0.33881612	0.12196316	0.13586192	-0.0025978954	0.016565391	-0.061572518	-0.35106688	0.26194489	0.14894707	-0.0074791776	0.0305497	0.025918153	-0.30997348	0.24237878	0.070541113	-0.081611864	-0.008960244	-0.020625062	-0.37811069	0.29924661	0.080257053	0.10071885	0.37627039	-0.078958882	-0.0046039484	0.36710686	0.21673866	0.062400696	0.38129755	0.038236029	-0.0042197045	0.34706995	0.080502376	-0.021578635	0.75339232	-0.15044834	-0.10994555	0.71892242	0.1928785	0.049542089	0.78950765	-0.083946016	-0.0080533755	0.78107422	0.15443017	-0.17068398	0.86416289	0.010386568	-0.014083061	1.2563498	-0.17002075	-0.037725229	1.2619068	0.19327232	-0.1028827	1.3033631	0.0038099176	-0.12014461	0.9613217	-0.20739034	-0.10600034	0.94625147	0.26445506	-0.052839568	0.73388541	-0.26499938	0.080999237	0.78438749	0.265087
189	0.752	0.11806696	-0.015636097	-0.033724958	-0.31928782	0.1231389	0.13647367	-0.0025999172	0.016637052	-0.061443504	-0.33419284	0.26273932	0.1494999	-0.007611772	0.030593628	0.026013391	-0.29354973	0.24360971	0.07064916	-0.081640361	-0.0088957749	-0.020456498	-0.36313005	0.29917416	0.080650659	0.101792	0.3762926	-0.078331781	0.01041459	0.37131608	0.21646059	0.062253603	0.38149938	0.038474276	0.010853433	0.35091132	0.080025256	-0.015879535	0.75465232	-0.15066049	-0.10330604	0.72172592	0.19270864	0.055836778	0.79084828	-0.084305915	-0.0019162885	0.78374525	0.15450445	-0.16404884	0.86629261	0.0098004535	-0.0064402915	1.2590008	-0.16949492	-0.031345929	1.2638939	0.19369664	-0.095690455	1.3054747	0.0040729971	-0.11072899	0.96292169	-0.2078452	-0.10127382	0.94861485	0.26338193	-0.03947467	0.73641315	-0.26483754	0.082630844	0.78336236	0.26600198
